<svg xmlns="http://www.w3.org/2000/svg">

<symbol id="close-button" viewBox="0 0 357 357">
    <path d="M357 35.7L321.3 0 178.5 142.8 35.7 0 0 35.7l142.8 142.8L0 321.3 35.7 357l142.8-142.8L321.3 357l35.7-35.7-142.8-142.8"/>
</symbol>

<symbol id="arrow-down" viewBox="0 0 10 4">
    <path d="M0 0h6L3 4z" />
</symbol>

<symbol id="about-button" viewBox="0 0 100 100">
  <path d="M50 34c1.7 0 3-.4 4.2-1.4 1-1 1.7-2.2 1.7-3.8 0-1.6-1-3-2-4s-2.6-1.3-4.4-1.3c-1.8 0-3.2.4-4.3 1.4-1.2.5-1.8 2-1.8 3.5s.5 3 1.7 4c1 .8 2.5 1.3 4.2 1.3zm4.6 37V39H40.4v5.4h5v27h-5v5.3h19.2V71"/>
  <path d="M50 10c22 0 40 18 40 40S72 90 50 90 10 72 10 50s18-40 40-40m0-5C25 5 5 25 5 50s20 45 45 45 45-20 45-45S75 5 50 5z"/>
</symbol>

<symbol id="verses-toggle" viewBox="0 0 512 512">
  <path d="M181 83.7h268v83H181zm0 131h268v83H181zm0 131h268v83H181zm-115-238v-12c5.5-.3 9.4-.6 11.6-1 3.5-1 6.4-2.5 8.7-4.8 1.5-2 2.7-4 3.5-7 .5-2 .7-3 .7-4h14.8v90H87v-62H66zm-.7 177c2.5-6 8.5-12.4 18-19 8-6 13.3-10 15.7-12.6 3.7-3 5.5-8 5.5-12s-1-7-3.2-9c-2-2.3-5-4-9-4-5.5 0-9 2-11 6-1.2 2.6-2 6-2 11H62c.4-7.3 1.8-14 4.3-18.2 4.7-9 13-13.5 25-13.5 9.6 0 17.2 2.5 22.8 7.8 6 5.5 9 12.4 9 21 0 6.8-2 12.7-6 17.8-2 3.2-7 7-13 11.3l-7 5-9 6.7c-1 1.3-3 3-4 5h39v15H61c.3-6.5 1.7-12.3 4.3-17.7m12.5 117c0 3.7.6 6.7 1.7 9 2 4.3 6 6.5 11.7 6.5 3.5 0 6.5-1.2 9-3.6 2.7-3 4-6 4-11 0-6-2.4-10-7.2-12-2.7-1-7-2-13-2v-12c5.8 0 9.8-1 12-2 4-1.8 6-5.4 6-10.6 0-4-1-7-3-9s-4.8-3.5-8.4-3.5c-4.2 0-7.2 1.3-9.2 4-2 2.6-3 6.2-2.8 10.6H62c.3-4.5 1-8.7 2.4-12.7 1.4-3.5 3.7-6.8 6.8-9.7 2.3-2.3 5-4 8.2-5 3.2-1 7-1.7 11.7-1.7 9 0 16 2.2 21 6.7 6 4.5 8 10.5 8 18 0 5.3-1 9.8-4 13.4-2 2.4-4 4-6 4.8 2 0 4 1.5 7 4.3 5 4 7 10 7 17 0 7.5-2.3 14.2-8 20-5 5.7-13 8.5-23 8.5-12.7 0-21.6-4-26.5-12-2.5-4.5-4-10.3-4.2-17.5h17z"/>
</symbol>

<symbol id="chapters-toggle" viewBox="0 0 512 512">
    <path d="M181 83.7h268v83H181zm-126.5 131h394.7v83H54.5zm0 131h394.7v83H54.5zM51 74V52c10.4-.6 17.6-1 21.7-2 6.5-1.5 12-4.4 16-8.7 3-3 5-7 6.6-11.8 1-3 1.3-5.2 1.3-6.7H124V189H90.2V74.4H51V74z"/>
</symbol>

<symbol id="titles-toggle" viewBox="0 0 512 512">
  <path d="M54.5 50.5h308v121h-308z"/>
  <path d="M54.5 214.7h394.7v83H54.5zm0 131h394.7v83H54.5z"/>
</symbol>

<symbol id="notes-toggle" viewBox="0 0 512 512">
  <path d="M60.4 79.4h393v83h-393zm0 131h268.3v83H60.4zm0 131h395.2v83H60.4zm355.4-30l-63-108.2h126"/>
</symbol>

<symbol id="wordsofchrist-toggle" viewBox="0 0 512 512">
    <path d="M66.6 83.7H441v83H66.5z"/>
    <path fill="#F00" d="M66.6 214.7H441v83H66.5z"/>
    <path d="M66.6 345.7H441v83H66.5z"/>
</symbol>

<symbol id="media-toggle" viewBox="0 0 48 48">
    <path fill="#223E49" d="M45,45H3c-1.105,0-2-0.895-2-2V5c0-1.105,0.895-2,2-2h42c1.105,0,2,0.895,2,2v38C47,44.105,46.105,45,45,45z"/>
    <circle fill="#EFD358" cx="21" cy="15" r="4"/>
    <path fill="#5A7A84" d="M41.792,35.39l-10-13c-0.378-0.492-1.207-0.492-1.585,0l-8.243,10.715l-6.184-7.73 c-0.379-0.475-1.183-0.475-1.562,0l-8,10C5.697,36.028,6.161,37,7,37h34C41.829,37,42.298,36.047,41.792,35.39z"/>
</symbol>

<symbol id="justify-toggle" viewBox="0 0 512 512">
  <path d="M54.4 83.7h394.8v83H54.4zm0 131h394.8v83H54.5zm0 131h394.8v83H54.5z"/>
</symbol>

<symbol id="BibleWindow-button" viewBox="0 0 49 49">
    <path fill="#E6E6E6" d="M12,46c-3.309,0-6-2.691-6-6s2.691-6,6-6h31v12H12z"/>
    <path fill="#A67C52" d="M42,1H10C7.239,1,5,3.239,5,6v34c0,3.866,3.134,7,7,7h30c0.553,0,1-0.448,1-1s-0.447-1-1-1l-29.777,0 c-2.61,0-4.945-1.903-5.199-4.5C6.733,37.52,9.078,35,12,35h30c0.552,0,1-0.448,1-1V2C43,1.448,42.552,1,42,1z"/>
    <path fill="#B3B3B3" d="M43,41H11c-0.553,0-1-0.448-1-1s0.447-1,1-1h32V41z"/>
    <path fill="#87613E" d="M10,33c-0.553,0-1-0.448-1-1V4c0-0.552,0.447-1,1-1s1,0.448,1,1v28C11,32.552,10.553,33,10,33z"/>
    <path fill="#C6A279" d="M33,23H19c-0.553,0-1-0.448-1-1v-8c0-0.552,0.447-1,1-1h14c0.553,0,1,0.448,1,1v8C34,22.552,33.553,23,33,23 z"/>
</symbol>

<symbol id="CommentaryWindow-button" viewBox="0 0 49 49">
    <path fill="#E86C60" d="M2,7C1.448,7,1,7.448,1,8v10c0,0.552,0.448,1,1,1h36c0.552,0,1-0.448,1-1V8c0-0.552-0.448-1-1-1H2z"/>
    <path fill="#C64B4B" d="M16,14h-6c-0.553,0-1-0.448-1-1s0.447-1,1-1h6c0.553,0,1,0.448,1,1S16.553,14,16,14z"/>
    <path fill="#C64B4B" d="M23,14h-2c-0.553,0-1-0.448-1-1s0.447-1,1-1h2c0.553,0,1,0.448,1,1S23.553,14,23,14z"/>
    <path fill="#9BCED3" d="M2,31c-0.552,0-1,0.448-1,1v10c0,0.552,0.448,1,1,1h36c0.552,0,1-0.448,1-1V32c0-0.552-0.448-1-1-1H2z"/>
    <path fill="#76B5B5" d="M16,38h-6c-0.553,0-1-0.448-1-1s0.447-1,1-1h6c0.553,0,1,0.448,1,1S16.553,38,16,38z"/>
    <path fill="#76B5B5" d="M23,38h-2c-0.553,0-1-0.448-1-1s0.447-1,1-1h2c0.553,0,1,0.448,1,1S23.553,38,23,38z"/>
    <path fill="#DDBE99" d="M9,20v10c0,0.552,0.448,1,1,1h36c0.552,0,1-0.448,1-1V20c0-0.552-0.448-1-1-1H10C9.448,19,9,19.448,9,20z"/>
    <path fill="#C6A279" d="M24,26h-6c-0.553,0-1-0.448-1-1s0.447-1,1-1h6c0.553,0,1,0.448,1,1S24.553,26,24,26z"/>
    <path fill="#C6A279" d="M31,26h-2c-0.553,0-1-0.448-1-1s0.447-1,1-1h2c0.553,0,1,0.448,1,1S31.553,26,31,26z"/>
</symbol>

<symbol id="SearchWindow-button" viewBox="0 0 48 48">
    <circle fill="#BFDEE0" cx="32" cy="24" r="9"/>
    <path fill="#335262" d="M47.121,36.293l-6.784-6.784C41.386,27.928,42,26.035,42,24c0-5.514-4.486-10-10-10s-10,4.486-10,10 s4.486,10,10,10c2.035,0,3.928-0.614,5.509-1.663l6.784,6.784c0.391,0.391,1.024,0.391,1.414,0l1.414-1.414 C47.512,37.317,47.512,36.683,47.121,36.293z M32,32c-4.418,0-8-3.582-8-8s3.582-8,8-8s8,3.582,8,8S36.418,32,32,32z"/>
    <path fill="#B3B3B3" d="M42,7H2C1.447,7,1,6.552,1,6s0.447-1,1-1h40c0.553,0,1,0.448,1,1S42.553,7,42,7z"/>
    <path fill="#B3B3B3" d="M17,19H2c-0.553,0-1-0.448-1-1s0.447-1,1-1h15c0.553,0,1,0.448,1,1S17.553,19,17,19z"/>
    <path fill="#B3B3B3" d="M17,31H2c-0.553,0-1-0.448-1-1s0.447-1,1-1h15c0.553,0,1,0.448,1,1S17.553,31,17,31z"/>
    <path fill="#B3B3B3" d="M36,43H2c-0.553,0-1-0.448-1-1s0.447-1,1-1h34c0.553,0,1,0.448,1,1S36.553,43,36,43z"/>
</symbol>

<symbol id="MapWindow-button" viewBox="0 0 49 49">
    <path fill="#BFDEE0" d="M17.75781,9.02979l-16,4C1.31249,13.14111,1,13.54102,1,14v30c0,0.30811,0.1416,0.59863,0.38477,0.78809 C1.56249,44.92676,1.7793,45,2,45c0.08105,0,0.16211-0.00977,0.24219-0.02979l15.71777-3.92969L18,41.05389V9.00458 C17.9187,9.00458,17.8371,9.00977,17.75781,9.02979z"/>
	<path fill="#76B5B4" d="M18.31641,9.05127C18.21375,9.01715,18.10699,9.00464,18,9.00458v32.04932l11.68359,3.89484 C29.78577,44.98291,29.8927,44.99536,30,44.99536V12.94611L18.31641,9.05127z"/>
    <path fill="#9BCED3" d="M46.61523,9.21191c-0.24316-0.18994-0.55957-0.25781-0.85742-0.18213l-15.71777,3.92969L30,12.94611 v32.04926c0.08136,0,0.16302-0.00513,0.24219-0.02515l16-4C46.68748,40.85889,47,40.45898,47,40V10 C47,9.69189,46.8584,9.40137,46.61523,9.21191z"/>
    <path fill-rule="evenodd" clip-rule="evenodd" fill="#E86C60" d="M24,1c-6.07511,0-11,4.92485-11,11 c0,6.5627,8.32933,15.03087,10.49197,17.11896c0.28494,0.27512,0.73112,0.27512,1.01606,0C26.67067,27.03087,35,18.5627,35,12 C35,5.92485,30.07511,1,24,1z"/>
    <circle fill-rule="evenodd" clip-rule="evenodd" fill="#FFFFFF" cx="24" cy="12" r="4"/>
</symbol>

<symbol id="image-icon" viewBox="0 0 512 512">
    <path d="M270.5 255.5c0-24 19.6-43.7 43.8-43.7 24.2 0 43.8 19.6 43.8 43.7s-19 43.8-43.2 43.8-43.8-19.6-43.8-43.8zm80 46c-10.3 8-23 12.4-36.2 12.4-13.4 0-26.2-5-36.4-13-27 10-39.7 44.2-39.7 60H389c0-15.7-12-50-38.6-60zm111-150V462H164.8v-54.7L118 417.7 50.6 114.5 340 50l22.6 101.4h98.8zm-296.6 0h165l-14.5-64-227.6 51 45.2 203 31.4-7v-183zM429.2 183h-233v207.8h233.3V183z"/>
</symbol>

<symbol id="MediaWindow-button" viewBox="0 0 49 49">
    <path fill="#BFDEE0" d="M45,47H3c-1.10457,0-2-0.89543-2-2V3c0-1.10457,0.89543-2,2-2h42c1.10457,0,2,0.89543,2,2v42 C47,46.10457,46.10457,47,45,47z"/>
    <circle fill="#EFD358" cx="21" cy="15" r="4"/>
    <path fill="#76B5B4" d="M41.79248,35.39014l-10-13c-0.37793-0.49219-1.20703-0.49219-1.58496,0l-8.24268,10.71545l-6.18408-7.7301 c-0.37891-0.47461-1.18262-0.47461-1.56152,0l-8,10C5.69676,36.02752,6.16103,37,7,37h34 C41.82902,37,42.29784,36.04732,41.79248,35.39014z"/>
</symbol>

<symbol id="ParallelsWindow-button" viewBox="0 0 49 49">
    <path fill="#43A6DD" d="M46,16H36v-5c0-0.39258-0.22949-0.74854-0.58691-0.91064c-0.35645-0.1626-0.77734-0.1001-1.07129,0.1582 l-8,7C26.12402,17.4375,26,17.71143,26,18s0.12402,0.5625,0.3418,0.75244l8,7C34.52734,25.91504,34.7627,26,35,26 c0.13965,0,0.28125-0.0293,0.41309-0.08936C35.77051,25.74854,36,25.39258,36,25v-5h8v16H4V20h8v5 c0,0.39258,0.22949,0.74854,0.58691,0.91064C12.71875,25.9707,12.86035,26,13,26c0.2373,0,0.47266-0.08496,0.6582-0.24756l8-7 C21.87598,18.5625,22,18.28857,22,18s-0.12402-0.5625-0.3418-0.75244l-8-7c-0.29492-0.25781-0.71387-0.31934-1.07129-0.1582 C12.22949,10.25146,12,10.60742,12,11v5H2c-1.10449,0-2,0.89551-2,2v20c0,1.10449,0.89551,2,2,2h44c1.10449,0,2-0.89551,2-2V18 C48,16.89551,47.10449,16,46,16z"/>
</symbol>

<symbol id="TextComparisonWindow-button" viewBox="0 0 49 49">
<rect x="22" y="6" fill="#B3B3B3" width="4" height="36"/>
<rect x="22" y="26" fill="#999999" width="4" height="2"/>
<path fill="#43A6DD" d="M37.41406,14.58594l-2.82812,2.82812L39.17188,22H8.82812l4.58594-4.58594l-2.82812-2.82812l-8,8
	c-0.78125,0.78125-0.78125,2.04688,0,2.82812l8,8l2.82812-2.82812L8.82812,26h30.34375l-4.58594,4.58594l2.82812,2.82812l8-8
	c0.78125-0.78125,0.78125-2.04688,0-2.82812L37.41406,14.58594z"/>
</symbol>

<symbol id="AudioWindow-button" viewBox="0 0 49 49">
    <path fill="#444" d="M35.07129,32.07129c-0.25586,0-0.51172-0.09766-0.70703-0.29297c-0.39062-0.39062-0.39062-1.02344,0-1.41406 c3.50879-3.50977,3.50879-9.21875,0-12.72852c-0.39062-0.39062-0.39062-1.02344,0-1.41406s1.02344-0.39062,1.41406,0 c4.28906,4.28906,4.28906,11.26758,0,15.55664C35.58301,31.97363,35.32715,32.07129,35.07129,32.07129z"/>
    <path fill="#444" d="M40.72852,37.72754c-0.25586,0-0.51172-0.09766-0.70703-0.29297c-0.39062-0.39062-0.39062-1.02344,0-1.41406 c6.62793-6.62793,6.62793-17.41309,0-24.04102c-0.39062-0.39062-0.39062-1.02344,0-1.41406s1.02344-0.39062,1.41406,0 c7.4082,7.4082,7.4082,19.46094,0,26.86914C41.24023,37.62988,40.98438,37.72754,40.72852,37.72754z"/>
    <path d="M28,45c-0.21191,0-0.42383-0.06738-0.59961-0.2002L11.66699,33H3c-1.10457,0-2-0.89543-2-2V17 c0-1.10457,0.89543-2,2-2h8.66699l15.7334-11.7998c0.30176-0.22852,0.70898-0.2627,1.04688-0.09473 C28.78613,3.27539,29,3.62109,29,4v40c0,0.37891-0.21387,0.72461-0.55273,0.89453C28.30566,44.96484,28.15234,45,28,45z"/>
    <rect fill="#999" x="5" y="15" width="2" height="18"/>
</symbol>

<symbol id="StatisticsWindow-button" viewBox="0 0 49 49">
    <path fill="#E86C60" d="M12,27H2c-0.55225,0-1,0.44727-1,1v12c0,0.55273,0.44775,1,1,1h10c0.55225,0,1-0.44727,1-1V28 C13,27.44727,12.55225,27,12,27z"/>
    <path fill="#EFD358" d="M28,17H18c-0.55225,0-1,0.44727-1,1v22c0,0.55273,0.44775,1,1,1h10c0.55225,0,1-0.44727,1-1V18 C29,17.44727,28.55225,17,28,17z"/>
    <path fill="#72C472" d="M44,7H34c-0.55225,0-1,0.44727-1,1v32c0,0.55273,0.44775,1,1,1h10c0.55225,0,1-0.44727,1-1V8 C45,7.44727,44.55225,7,44,7z"/>
</symbol>

<symbol id="DeafBibleWindow-button" viewBox="0 0 400 400">
    <path fill="#A67C52" d="M128.6 51c3.7-10.6 7-20.3 20.2-19.5 10.5.7 14.2 7.4 15 16.5 22.3 5.5 24 10 17 48.6 18.5-.4 18 12.2 17.6 25.4-.4 15.8 0 31.7 0 47.5 0 1.2.5 2.3 3.4 3.7.5-7 1.4-14 1.4-20.8 0-12 0-24.2-.8-36.3-.8-12 3.7-19 17-19l-2.6-25C215 56.6 219 51.6 236 49c2-9 5-17.4 16.8-17.5 13-.2 15.8 10 19.3 19.3 16-10.4 23-8.4 29 9.2 12.8 36.5 24 73.3 36.6 110.2 11.4-17 29.3-21 49-17.5 4.8 1 10.6 6.6 12 11.3 1 2.7-5.3 10.4-9.5 11.5-24 6.2-30.3 25.8-32 45.4-2.2 26.4-11.7 49-27 71-8.4 12-11 29-13 44.4-1.7 11.5-7 18.5-16 23.4-19.7 10.3-41 14.4-63 12.6-3.7-.3-9.2-3.3-10.6-6.5-8.6-20.5-16.5-41.4-24.6-62l-3.4-.5c-8 19.6-15.5 39.4-24.2 58.7-2 4.5-8.4 10.2-12.6 10-15-.4-30-1.7-44.4-5.3-19-4.6-34-13.6-34.8-37.6-.5-18.7-7.5-36.3-20.6-51-12.7-14.6-15-32.8-17.4-51.2-2-13-5.3-26.4-11.3-38-3.3-6-13-9.2-20.6-12.6-6.3-3-14-5.7-11-13.6 2-4.5 9-9.5 14.5-10.3 18.5-3 35.5 1 47.5 19.4l3.2-9.3c11-35 21.4-70 33-104.6 5-15.6 13.6-17.5 28-7z"/>
</symbol>

<symbol id="settings-button" viewBox="0 0 49 49">
    <path fill="#B3B3B3" d="M45,10H14V6h31c0.55228,0,1,0.44772,1,1v2C46,9.55229,45.55228,10,45,10z"/>
    <rect x="21" y="6" fill="#898989" width="4" height="4"/>
    <path fill="#B3B3B3" d="M45,42H14v-4h31c0.55228,0,1,0.44772,1,1v2C46,41.55228,45.55228,42,45,42z"/>
    <rect x="21" y="38" fill="#898989" width="4" height="4"/>
    <path fill="#B3B3B3" d="M45,26H32v-4h13c0.55228,0,1,0.44772,1,1v2C46,25.55228,45.55228,26,45,26z"/>
    <rect x="39" y="22" fill="#898989" width="4" height="4"/>
    <path fill="#43A6DD" d="M14,10H3c-0.55228,0-1-0.44771-1-1V7c0-0.55228,0.44772-1,1-1h11V10z"/>
    <path fill="#43A6DD" d="M32,26H3c-0.55228,0-1-0.44772-1-1v-2c0-0.55228,0.44772-1,1-1h29V26z"/>
    <path fill="#43A6DD" d="M14,42H3c-0.55228,0-1-0.44772-1-1v-2c0-0.55228,0.44772-1,1-1h11V42z"/>
    <circle fill="#E6E6E6" cx="15" cy="8" r="7"/>
    <circle fill="#E6E6E6" cx="33" cy="24" r="7"/>
    <circle fill="#E6E6E6" cx="15" cy="40" r="7"/>
</symbol>

<symbol id="aboutWindow-button" viewBox="0 0 49 49">
    <path d="M24,1C11.31738,1,1,11.31787,1,24s10.31738,23,23,23s23-10.31787,23-23S36.68262,1,24,1z"/>
    <path fill="#FFFFFF" d="M28,33h-3V22c0-0.55225-0.44727-1-1-1h-4c-0.55273,0-1,0.44775-1,1s0.44727,1,1,1h3v10h-3 c-0.55273,0-1,0.44775-1,1s0.44727,1,1,1h8c0.55273,0,1-0.44775,1-1S28.55273,33,28,33z"/>
    <circle fill="#FFFFFF" cx="24" cy="16" r="2"/>
</symbol>

<symbol id="arrow-left" viewBox="0 0 48 48">
    <path d="M43,22H8.82812l10.58594-10.58594l-2.82812-2.82812l-14,14c-0.78097,0.78097-0.78097,2.04716,0,2.82812 l14,14l2.82812-2.82812L8.82812,26H43c0.55228,0,1-0.44772,1-1v-2C44,22.44772,43.55228,22,43,22z"/>
</symbol>

<symbol id="arrow-right" viewBox="0 0 48 48">
<path d="M31.41406,8.58594l-2.82812,2.82812L39.17188,22H5c-0.55228,0-1,0.44772-1,1v2c0,0.55228,0.44772,1,1,1 h34.17188L28.58594,36.58594l2.82812,2.82812l14-14c0.78096-0.78097,0.78096-2.04716,0-2.82812L31.41406,8.58594z"/>
</symbol>

<symbol id="fullscreen" viewBox="0 0 512 512">
    <path d="M462 185.6h-61V111h-74.6V50H462v135.6zM326.4 462v-61H401v-74.6h61V462H326.4zM50 326.4h61V401h74.6v61H50V326.4zM185.6 50v61H111v74.6H50V50h135.6z" />
</symbol>

<!-- video-icon -->
<symbol id="video-icon" viewBox="0 0 512 512">
    <path d="M354.5 388.5c-20.6 24-57 40-98.5 40s-78-16-98.5-40h197zM462 83.5v280H50v-280h412zm-40 40H90v200h332v-200zM221 285.8V165.6l98 60-98 60.2z"/>
</symbol>

<symbol id="audio-toggle" viewBox="0 0 49 49">
	<path d="M12 43h-.4c-.4-.3-.6-.6-.6-1V6c0-.4.2-.7.6-1 .3 0 .7 0 1 .2l24 18c.3.2.4.5.4.8s0 .6-.4.8l-24 18-.6.2z"/>
    <path fill="currentColor" d="M17 43H9c-1 0-2-1-2-2V7c0-1 1-2 2-2h8c1 0 2 1 2 2v34c0 1-1 2-2 2zM39 43h-8c-1 0-2-1-2-2V7c0-1 1-2 2-2h8c1 0 2 1 2 2v34c0 1-1 2-2 2z"/>
</symbol>

<symbol id="audio-prev" viewBox="0 0 512 512">
<path d="M94.8 370V142H50v228h44.8zm183.7 13L94.8 256l183.7-127v254zm183.5 0L278.3 256 462 129v254z"/>
</symbol>

<symbol id="audio-next" viewBox="0 0 512 512">
<path d="M462 370V142h-44.8v228H462zM233.5 129l183.7 127-183.7 127V129zM50 129l183.7 127L50 383V129z"/>
</symbol>

<symbol id="eng2p-button" viewBox="0 0 512 512">
    <path d="M462 393.6H355.6c0-115.8-58-60.8-58-162.3 0-36.6 24-56.5 54.8-56.5 45.5 0 77.2 43.5 34 124.7-14 26.7 15.2 33 46.6 40.3 31.4 7.2 29 23.8 29 53.8zM289 326c-39.4-9.2-76-17.2-58.3-50.8 54.2-102 14.3-156.8-43-156.8-58.2 0-97 56.8-42.8 156.8C163.2 309 125 317 86.4 326 47 335 50 355.7 50 393.5h275.6c0-37.8 3-58.6-36.5-67.7z"/>
</symbol>

<symbol id="visualfilters-button" viewBox="0 0 512 512">
    <path d="M200 28.2c0 4.7-14.2 43-24.5 66.3L165.2 119 150 155.5l-13.6 33c-4 10-8.3 20-9.4 22.5L84.5 313c-7 16.8-14.4 33.4-16.5 37-7.7 13-16.7 19-29.7 19.8l-7 .5-.5 6.4c-.2 3.6 0 6.7 0 7 .3 0 23.2.3 51 .3H132v-13.7l-12.7-.5c-34.2-1.3-34.4-9.7-2.3-85l6.3-14.8 69 .2 69 .3 7 17.5 11.4 29.5c2.5 6.6 5.4 14 6.4 16.2 4 7.3 7 21.4 6 25.5-1 8-5 10-24 10.6l-13 .5V384h67c37 0 67 .4 68 .8.5 1-.4 3-8.5 19.7-7.7 15.8-13.7 26-27.6 47.2-12 18-11.7 17.6-9.8 24.6.5 1.6 4 1.7 60 1.5l60-.3 2-18c1-10 3-23.6 3.6-30.5 1-7 2-15 2-17.8l1-5.2h-14l-1.3 4.2c-1.8 6-8.6 20.3-11 23.5-4.4 5.5-8.4 7.3-18.8 8.3-12.2 1.2-47 1.3-47.7.2-.5-.5 5-7.2 12-14.8 28.3-31.2 41.3-49 51.5-70.7 10-21.7 14-41.3 13-64.7-1.7-41.4-16.2-75.3-43.4-101-20.2-19.2-44.6-31.2-75.3-37-16.4-3.3-43.5-3.3-60-.2-30.6 6-55 18.2-76.7 38.6-12 11-26 31.8-32 46.8l-2.3 6.5c0 .2 10.5.2 23.3 0l23-.2 2-8c14-39 38-62 73-68 16-3 35-1.6 49.3 3.4 35.5 12 59.6 46 67 96 2.4 15 2.4 43 0 59-1.8 12-6.5 32-9 38l-1.6 3-10-.7c-8-.3-11.4-1-14.6-2.5-12-6.3-22-25.4-43-80.3l-17.2-45c-7.4-18.7-15-38.5-17-44-7-18.8-7-18.5-10.6-17.7-13 3-31 15-41.3 28.7l-2 2.7 8 20c4.4 11 8 20.3 8 21 0 1-18 1-62 1-34 0-62-.3-62-.5 0-.6 5.4-13.6 7.5-18l5-11 7.6-18 9-22 23-55 7-16c2.6-6 5-11.3 5.7-11 .8 0 3 5.7 6 12.2l12 30.6 7.5 19s5-2 10.6-4.8c10-5.4 23.6-10.6 33-12.6l6.2-2c.5-.5-1.6-7-4.6-14.7l-9-23.4-7-18c-11-26-21.4-56.4-21.4-60 0-1-3-1.3-14-1.3-10.5 0-14 .2-14 1z"/>
    <path d="M157.4 281.2c-.4 2.4-.7 10.8-.6 18.8 0 23 3.8 38.8 14.2 60.6 10.6 22 25 41.2 50.2 67 7.8 8 13.3 14.3 12.8 14.8-1.3 1.3-51.8 0-56-1.4-8.4-3-14-10.3-20-26.3l-3.5-8.8h-13l.3 4 2.2 21 3.8 31 1.7 15H269l1.5-3.8c.8-2 1.5-4.3 1.5-5 0-.8-5-9-11-18.7-22-34-34.4-58-43.2-83.6-9-26-12.2-45-11.7-71.4l1-18h-48l-1 4.4z"/>
</symbol>

<!-- Text Chooser Icons -->

<symbol id="earth" viewBox="0 0 49 49">
  <path d="M14.4 14h9v9.5h-10c0-3.3.4-6.5 1-9.4m0 21h9v-9.4h-10c0 3.3.4 6.5 1 9.4m9-23V0C20 1 16.8 5.5 15 12h8.5m13.2 23h10c1.4-3 2.2-6.2 2.3-9.5H37.6c0 3.4-.3 6.5-1 9.4m0-21c.7 3 1 6 1 9.4H49c0-3.3-1-6.5-2.3-9.4h-10m-.5-2h9.5C42.4 6.6 37 2.5 30.5.8 33 3.2 35 7 36.2 12M23.5 49V37H15c1.7 6.6 4.8 11.2 8.5 12M34 12c-1.6-6.5-4.7-11-8.4-12v12H34m1.6 13.5h-10V35h9c.6-3 1-6.2 1-9.5M0 25.5C0 28.8 1 32 2.3 35h10c-.6-3-1-6-1-9.5H0M12.8 37H3.3c3.3 5.5 8.7 9.6 15.2 11.3C16 45.8 14 42 12.8 37m23.4 0c-1.2 5-3.2 8.8-5.7 11.3 6.5-1.7 12-5.8 15.2-11.4h-9.5M12.8 12C14 7 16 3.3 18.5.8 12 2.4 6.5 6.5 3.3 12h9.5m21.8 2h-9v9.5h10c0-3.3-.4-6.5-1-9.4M2.3 14C1 17 0 20.3 0 23.6h11.4c0-3.4.3-6.5 1-9.4h-10m23 23v12c3.8-.8 7-5.4 8.7-12h-8.4z"/>
</symbol>

<symbol id="book" viewBox="0 0 512 512">
    <path d="M422 99.8v248c-57.8 4.5-106.7 14.5-146 30V178c10.2-6.4 21.4-11.8 33.3-16.3V119c-19.8 6.5-37.8 14.4-53.3 24-50.4-31.4-127.3-44-206-46.4V386c67.6 2 133.8 11.6 183 34 14.6 6.8 31.4 6.8 46 .2 49-22.6 115.3-32.2 183-34.2V94.5c-12.8.2-28.6 2.3-40 5.2zm-186 278c-39.3-15.5-88.2-25.5-146-30V139c47.5 4 105.5 13.7 146 39v200zM335.2 125v106l29.8-36.6 29.8 25.7V112c0-14.2 6.3-21.5 16.8-25-22 3-46.3 8.8-59 12.8-9 3-17.4 11.5-17.4 25.3z"/>
</symbol>

<symbol id="language" viewBox="0 0 16 16">
    <path d="M6.5 3.5C3 3.5 0 5.7 0 8.5 0 9.8.7 11 1.8 12c0 1-.2 2-1 2.6 1.4 0 2.7-.8 3.5-1.4.7.2 1.4.3 2.2.3 3.6 0 6.5-2.3 6.5-5 0-2.8-3-5-6.5-5z" />
    <path fill="currentColor" d="M15 9c.7-.8 1-1.6 1-2.5 0-2.8-3-5-6.5-5-1.6 0-3 .4-4.2 1H7c4 0 7 2.4 7 5.5 0 1.2-.5 2.3-1.3 3.2.8.6 2 1.4 3.4 1.4-.6-1-1-2.8-1-3.6z" />
</symbol>

<symbol id="more" viewBox="0 0 512 512">
    <path d="M204.2 38.7l.3 14.8h115l.3-14.8.3-14.7H204l.2 14.7zM206 97v15h115l-.2-14.8-.3-14.7-57.2-.3L206 82v15zm-2 111.5V276h-53.5c-29.4 0-53.5.3-53.5.6s4 5.3 8.7 11l11.8 14.4 30.5 37 30 36.4c15 18.8 83.4 101 84 101 .5 0 8.6-9.4 18.2-21l49.3-60 84.3-102.2c7.2-9 13.2-16.4 13.2-16.7 0-.3-24-.5-53.5-.5H320V141H204v67.5z"/>
</symbol>

<symbol id="fancy-arrow" viewBox="0 0 512 512">
    <path d="M204.2 38.7l.3 14.8h115l.3-14.8.3-14.7H204l.2 14.7zM206 97v15h115l-.2-14.8-.3-14.7-57.2-.3L206 82v15zm-2 111.5V276h-53.5c-29.4 0-53.5.3-53.5.6s4 5.3 8.7 11l11.8 14.4 30.5 37 30 36.4c15 18.8 83.4 101 84 101 .5 0 8.6-9.4 18.2-21l49.3-60 84.3-102.2c7.2-9 13.2-16.4 13.2-16.7 0-.3-24-.5-53.5-.5H320V141H204v67.5z"/>
</symbol>

<symbol id="search" viewBox="0 0 16 16">
    <path d="M1.8 1.8C-.6 4-.6 8 1.8 10.4c2.3 2.3 6.2 2.3 8.6 0 2.3-2.4 2.3-6.3 0-8.6C8-.6 4-.6 1.8 1.8zm8 .7c2 2 2 5.2 0 7.2s-5.4 2-7.3 0c-2-2-2-5.3 0-7.2 2-2 5.2-2 7.2 0zm.2 9l1.5-1.4 4.5 5-1.4 1.5L10 12z"/>
</symbol>

<symbol id="github" viewBox="0 0 48 48">
    <path d="M24 .6C10.7.6 0 11.3 0 24.6c0 10.6 7 19.6 16.4 22.8 1.2.2 1.7-.6 1.7-1.2v-4c-6.3 1.4-8-3.3-8-3.3-1-3-2.3-4-2.3-4-2.6-1 0-1 0-1 2.2 0 3.5 2.3 3.5 2.3 2.6 3.7 6 2.6 7 2 .6-1.5 1-2.6 2-3.2-5.4-.5-11-2.6-11-12 0-2.4 1-4.5 2.5-6.2-.3-1-1-3 .2-6.8 0 0 2-.6 6.5 2.5 2-.6 4-1 6-1s4 .4 6 1C35 9.7 37 10 37 10c1.2 3.5.4 6 0 6.5 1.6 1.6 2.5 3.7 2.5 6.3 0 9.3-5.6 11.3-11 12 1 .6 1.7 2 1.7 4.3v7c0 .8.5 1.5 1.7 1.3 9-3 16-12 16-22.6 0-13.3-10.7-24-24-24z"/>
</symbol>

</svg>
